<?xml version="1.0" encoding="UTF-8" standalone="no"?>
<svg width="58px" height="102px" viewBox="0 0 58 102" version="1.1" xmlns="http://www.w3.org/2000/svg" xmlns:xlink="http://www.w3.org/1999/xlink">
    <!-- Generator: Sketch 48.2 (47327) - http://www.bohemiancoding.com/sketch -->
    <title>Rectangle 3</title>
    <desc>Created with Sketch.</desc>
    <defs>
        <path d="M25.2583,79.0749 C25.2583,87.3299 26.0843,92.6119 27.5703,94.9239 C29.0543,97.2349 32.6883,98.3899 38.3003,98.3899 L38.3003,101.8569 L0.4953,101.8569 L0.4953,98.3899 C5.9443,98.3899 9.5753,97.2349 11.0613,94.9239 C12.7123,92.6119 13.5373,87.3299 13.5373,79.0749 L13.5373,52.6609 L0.0003,52.6609 L0.0003,46.8849 L13.5373,46.8849 L13.5373,31.0359 C13.5373,20.6359 16.3433,12.7119 21.9573,7.2639 C26.9093,2.4759 33.1823,-0.0001 40.6123,-0.0001 C45.7293,-0.0001 49.8563,1.3209 52.9923,4.1269 C55.7993,6.6029 57.1193,9.2439 57.1193,12.2169 C57.1193,15.6829 55.1393,18.1599 51.6713,18.1599 C49.3613,18.1599 47.7093,16.8399 46.5543,14.1979 C44.0783,8.4199 41.1063,5.4479 37.6403,5.4479 C28.8913,5.4479 25.2583,12.3819 25.2583,31.0359 L25.2583,46.8849 L42.0003,46.8849 L42.0003,52.6609 L25.2583,52.6609 L25.2583,79.0749 Z" id="path-1"></path>
    </defs>
    <g id="Artboard-Copy-19" stroke="none" stroke-width="1" fill="none" fill-rule="evenodd" transform="translate(-691.000000, -401.000000)">
        <g id="Rectangle-3" transform="translate(691.000000, 401.000000)">
            <mask id="mask-2" fill="white">
                <use xlink:href="#path-1"></use>
            </mask>
            <use id="Mask" fill="#F1CCC2" opacity="0.1" xlink:href="#path-1"></use>
            <rect fill="#F29191" mask="url(#mask-2)" x="-26" y="-143" width="96" height="328"></rect>
        </g>
    </g>
</svg>